PathFileType	4	(X/Y/Z)	C:/Users/opensim2020/Desktop/walking_exp_matlab/subject01_walking06_straight_04.trc	
DataRate	CameraRate	NumFrames	NumMarkers	Units	OrigDataRate	OrigDataStartFrame	OrigNumFrames	
100.00	100.00	5	43	mm	100.00	2816	212	
Frame#	Time	LFHD			RFHD			LBHD			RBHD			C7			T10			CLAV			STRN			RBAK			LSHO			LUPA			LELB			LFRM			LWRA			LWRB			LFIN			RSHO			RUPA			RELB			RFRM			RWRA			RWRB			RFIN			LASI			RASI			LPSI			RPSI			LTHI			LKNE			LTIB			LANK			LHEE			LTOE			RTHI			RKNE			RTIB			RANK			RHEE			RTOE			*39			*40			*41			*42			
		X1	Y1	Z1	X2	Y2	Z2	X3	Y3	Z3	X4	Y4	Z4	X5	Y5	Z5	X6	Y6	Z6	X7	Y7	Z7	X8	Y8	Z8	X9	Y9	Z9	X10	Y10	Z10	X11	Y11	Z11	X12	Y12	Z12	X13	Y13	Z13	X14	Y14	Z14	X15	Y15	Z15	X16	Y16	Z16	X17	Y17	Z17	X18	Y18	Z18	X19	Y19	Z19	X20	Y20	Z20	X21	Y21	Z21	X22	Y22	Z22	X23	Y23	Z23	X24	Y24	Z24	X25	Y25	Z25	X26	Y26	Z26	X27	Y27	Z27	X28	Y28	Z28	X29	Y29	Z29	X30	Y30	Z30	X31	Y31	Z31	X32	Y32	Z32	X33	Y33	Z33	X34	Y34	Z34	X35	Y35	Z35	X36	Y36	Z36	X37	Y37	Z37	X38	Y38	Z38	X39	Y39	Z39	X40	Y40	Z40	X41	Y41	Z41	X42	Y42	Z42	X43	Y43	Z43	

27	0.260	-1010.25415	936.49548	1659.22327	-1122.90100	909.49854	1665.84314	-1033.39978	1053.43420	1621.85327	-1152.38464	1028.91565	1628.67212	-1068.74316	1098.82166	1427.55811	-1080.76550	1133.27930	1132.71265	-1073.67200	955.53259	1356.50403	-1073.03406	914.06732	1203.29065	-1147.95544	1156.41370	1234.88354	-909.10614	1011.57678	1385.13489	-826.53363	1052.03809	1199.94861	-826.88416	1081.00366	1056.69971	-798.23999	1069.65479	945.78198	-820.59534	1032.00232	810.94928	-785.66681	1079.74231	824.25293	-782.39996	1055.10364	742.15222	-1222.95215	1022.51270	1388.15649	-1328.46692	1082.20972	1192.72913	-1348.39990	1073.48535	1068.78357	-1394.84937	1016.42603	966.53217	-1400.21265	900.55634	884.91797	-1431.71814	947.51495	872.20062	-1448.01392	886.85596	816.53833	-985.82343	947.73602	931.94019	-1203.41980	968.12866	926.94128	-1019.79523	1139.46375	940.18884	-1163.46753	1150.39087	945.13287	-933.17334	907.80188	611.72809	-955.97485	886.82104	480.74512	-941.56122	904.39063	291.22580	-997.89288	902.14716	73.95178	-1049.54321	946.81512	44.51185	-999.47406	753.81128	42.33168	-1263.62573	1076.24231	603.18262	-1253.38257	1103.25427	443.45139	-1242.81494	1244.11133	333.15891	-1195.92798	1372.57227	170.55466	-1135.21143	1418.32556	171.05988	-1205.29736	1304.78662	41.79307	-1100.36877	922.32764	1699.82678	-3101.89111	1973.24780	1023.36108	-3140.74219	2012.52002	1021.97595			 
28	0.270	-1009.29456	926.21344	1659.89856	-1121.82813	899.37714	1666.54736	-1032.26575	1043.25244	1622.72583	-1151.34033	1018.87189	1629.53723	-1067.53650	1088.74951	1428.38501	-1079.74329	1122.84302	1133.42810	-1072.45374	945.45428	1357.53748	-1071.49927	903.79980	1204.24304	-1147.07471	1146.06238	1235.65808	-907.95392	1001.58807	1386.45911	-825.36633	1040.77832	1201.16577	-826.02704	1068.08960	1057.41858	-797.59094	1055.40283	946.52032	-820.73621	1015.86041	812.29572	-785.78925	1063.84558	824.79376	-782.66760	1037.74048	742.97809	-1221.64307	1012.45758	1389.04065	-1326.57068	1073.08765	1193.56165	-1345.23706	1065.77075	1069.55725	-1391.98633	1010.30695	966.33643	-1398.29700	895.45978	883.30023	-1429.22107	943.22284	871.07532	-1445.69446	883.34229	814.40161	-984.21265	938.07690	932.97803	-1201.66895	957.01801	927.84589	-1019.25916	1129.19202	941.55054	-1163.25012	1139.18567	946.08337	-932.26691	900.28253	611.32513	-955.02185	880.48151	480.17960	-941.43433	900.56409	291.20801	-998.20819	901.80493	74.23915	-1049.63647	946.60516	44.42173	-999.19855	753.05286	41.47619	-1264.57544	1058.71204	602.27899	-1254.75452	1083.56433	442.51364	-1243.54395	1227.41174	336.35483	-1197.08252	1360.62219	177.84561	-1135.41650	1405.13086	181.35876	-1204.28906	1302.36255	43.72063	-1099.27612	912.14740	1700.59351	-3101.91479	1973.08423	1023.81628	-3140.58740	2012.63782	1022.04999			 
29	0.280	-1008.56195	916.02911	1660.64514	-1121.09607	889.35077	1667.23669	-1031.32874	1033.14783	1623.50732	-1150.41150	1008.87585	1630.24072	-1066.57166	1078.48315	1429.22314	-1078.63293	1112.63367	1134.13977	-1071.22839	935.50909	1358.37427	-1070.09094	893.68817	1205.09460	-1146.10632	1135.81287	1236.26550	-907.01031	991.50525	1387.72534	-824.03064	1029.41626	1202.46143	-824.95569	1055.29871	1058.11450	-796.93408	1040.82751	947.29602	-820.82764	999.27905	813.78906	-785.58362	1047.33740	825.42450	-782.82324	1019.71417	743.95697	-1220.47375	1002.51251	1389.96423	-1324.86438	1064.27991	1194.45032	-1342.02539	1058.11584	1070.25964	-1389.04041	1004.37842	966.04651	-1396.27991	890.57593	881.52667	-1426.42896	938.95105	869.86829	-1443.24817	880.02820	811.89478	-982.67200	928.39844	933.73981	-1199.70459	946.24200	928.69153	-1018.57312	1119.10754	942.77643	-1162.92346	1128.45313	947.03613	-931.16901	893.75763	611.28864	-953.96375	874.93042	480.11642	-941.50391	897.36102	291.12747	-998.41534	901.38422	74.30774	-1049.70593	946.52466	44.53498	-999.16711	752.65076	40.88795	-1265.44592	1040.88452	601.14087	-1255.55151	1063.47278	441.60861	-1244.32239	1209.82971	339.47928	-1198.07410	1347.78418	185.02539	-1136.47327	1391.58765	191.26927	-1203.75513	1297.03577	47.38415	-1098.81677	901.67993	1701.46948	-3101.85352	1973.07446	1023.24524	-3140.68530	2012.56226	1021.98596			 
30	0.290	-1007.80811	905.98407	1661.47192	-1120.49963	879.37354	1667.90771	-1030.47217	1023.02319	1624.19250	-1149.63647	998.94391	1630.83203	-1065.57788	1068.38611	1430.06067	-1077.47522	1102.87622	1134.95007	-1070.22583	925.49078	1359.09888	-1068.66052	883.80273	1205.85449	-1145.06628	1125.67114	1236.94727	-906.14722	981.39551	1388.93054	-822.69373	1017.92645	1203.69165	-823.80884	1042.46655	1058.89368	-796.33875	1026.29712	948.15021	-820.76465	982.23346	815.42206	-785.07422	1030.10547	826.00043	-783.09290	1001.12048	744.91614	-1219.52405	992.49561	1390.77429	-1323.22827	1055.39917	1195.22278	-1338.91650	1050.69446	1070.83423	-1385.88257	998.59460	965.63287	-1394.20276	885.80878	879.62146	-1423.54175	934.79083	868.45422	-1440.62830	876.86322	809.22479	-981.19946	918.89124	934.30548	-1198.12329	935.90424	929.64978	-1017.97296	1109.38928	943.95557	-1162.56836	1117.96326	947.87238	-929.98785	887.88007	611.34906	-952.86920	869.90070	480.05338	-941.44263	894.76520	291.18167	-998.49347	901.17609	74.40382	-1049.71558	946.60590	44.55541	-999.19391	752.49786	40.46959	-1266.07324	1022.92590	599.82184	-1256.07153	1042.94202	440.69846	-1245.42432	1191.57239	342.34601	-1198.80725	1333.52063	192.13380	-1137.61987	1377.40540	201.29747	-1203.61279	1289.96460	52.24101	-1098.03552	891.83008	1702.02136	-3101.92969	1972.91541	1023.71228	-3140.56714	2012.54358	1022.07806			 
31	0.300	-1007.48004	895.78601	1662.31580	-1120.10229	869.40839	1668.59570	-1029.83875	1012.91327	1624.96448	-1148.99524	988.98303	1631.42566	-1064.72888	1058.49146	1430.83936	-1076.25769	1093.07593	1135.79309	-1068.96375	915.77100	1359.72607	-1067.35291	873.98193	1206.59546	-1143.90039	1115.65454	1237.64966	-905.38452	971.23260	1390.12939	-821.36981	1006.59491	1205.04724	-822.47876	1029.89905	1059.37708	-795.41809	1011.43622	948.85803	-820.71497	964.83594	817.10315	-784.88196	1012.97034	826.61169	-783.25262	982.21161	746.14746	-1218.57300	982.50104	1391.53748	-1321.67578	1046.60010	1195.98193	-1335.88696	1043.08936	1071.27856	-1382.77148	992.87836	965.07489	-1392.01270	881.15881	877.53741	-1420.54993	930.70972	866.79657	-1437.74695	873.92908	806.50116	-979.80591	909.50183	934.86444	-1196.57947	925.86182	930.32501	-1017.38232	1099.86365	944.97955	-1162.26196	1108.16125	948.32697	-928.74231	882.37469	611.31183	-951.75012	865.08911	479.92038	-941.22296	892.64661	291.19281	-998.54608	901.08527	74.43747	-1049.84192	946.56714	44.54945	-999.13702	752.25891	40.09596	-1266.22827	1004.95172	598.53522	-1256.28064	1022.02942	439.85980	-1246.93591	1172.63745	344.99765	-1199.26501	1317.92725	199.27954	-1138.47815	1362.15796	211.14658	-1204.04529	1281.58435	57.64151	-1097.98938	881.72076	1702.92249	-3101.82642	1973.20728	1023.31317	-3140.64673	2012.55737	1022.02386			 
